<mxfile host="app.diagrams.net" modified="2021-01-01T16:49:52.333Z" agent="5.0 (Windows NT 10.0; Win64; x64) AppleWebKit/537.36 (KHTML, like Gecko) Chrome/87.0.4280.88 Safari/537.36" etag="J6dafDO3HqsUALCtKYd5" version="14.1.5" type="github">
  <diagram id="C5RBs43oDa-KdzZeNtuy" name="Page-1">
    <mxGraphModel dx="948" dy="529" grid="1" gridSize="10" guides="1" tooltips="1" connect="1" arrows="1" fold="1" page="1" pageScale="1" pageWidth="827" pageHeight="1169" math="0" shadow="0">
      <root>
        <mxCell id="WIyWlLk6GJQsqaUBKTNV-0" />
        <mxCell id="WIyWlLk6GJQsqaUBKTNV-1" parent="WIyWlLk6GJQsqaUBKTNV-0" />
        <mxCell id="WIyWlLk6GJQsqaUBKTNV-2" value="" style="rounded=0;html=1;jettySize=auto;orthogonalLoop=1;fontSize=11;endArrow=block;endFill=0;endSize=8;strokeWidth=1;shadow=0;labelBackgroundColor=none;edgeStyle=orthogonalEdgeStyle;" parent="WIyWlLk6GJQsqaUBKTNV-1" source="WIyWlLk6GJQsqaUBKTNV-3" target="WIyWlLk6GJQsqaUBKTNV-6" edge="1">
          <mxGeometry relative="1" as="geometry" />
        </mxCell>
        <mxCell id="WIyWlLk6GJQsqaUBKTNV-3" value="Load n Quiz records &lt;br&gt;at selected grade&lt;br&gt;since current offset1&amp;nbsp;&amp;nbsp;&lt;br&gt;init offset1 = 0" style="rounded=1;whiteSpace=wrap;html=1;fontSize=12;glass=0;strokeWidth=1;shadow=0;" parent="WIyWlLk6GJQsqaUBKTNV-1" vertex="1">
          <mxGeometry x="135" y="110" width="150" height="70" as="geometry" />
        </mxCell>
        <mxCell id="WIyWlLk6GJQsqaUBKTNV-4" value="Yes" style="rounded=0;html=1;jettySize=auto;orthogonalLoop=1;fontSize=11;endArrow=block;endFill=0;endSize=8;strokeWidth=1;shadow=0;labelBackgroundColor=none;edgeStyle=orthogonalEdgeStyle;entryX=0.5;entryY=0;entryDx=0;entryDy=0;" parent="WIyWlLk6GJQsqaUBKTNV-1" source="WIyWlLk6GJQsqaUBKTNV-6" target="WIyWlLk6GJQsqaUBKTNV-12" edge="1">
          <mxGeometry y="20" relative="1" as="geometry">
            <mxPoint as="offset" />
          </mxGeometry>
        </mxCell>
        <mxCell id="WIyWlLk6GJQsqaUBKTNV-5" value="No" style="edgeStyle=orthogonalEdgeStyle;rounded=0;html=1;jettySize=auto;orthogonalLoop=1;fontSize=11;endArrow=block;endFill=0;endSize=8;strokeWidth=1;shadow=0;labelBackgroundColor=none;entryX=0.5;entryY=1;entryDx=0;entryDy=0;" parent="WIyWlLk6GJQsqaUBKTNV-1" source="WIyWlLk6GJQsqaUBKTNV-6" target="FqrDWBqePk5-earfhPfw-0" edge="1">
          <mxGeometry x="0.5004" y="20" relative="1" as="geometry">
            <mxPoint as="offset" />
            <mxPoint x="345" y="230" as="targetPoint" />
            <Array as="points">
              <mxPoint x="340" y="270" />
            </Array>
          </mxGeometry>
        </mxCell>
        <mxCell id="WIyWlLk6GJQsqaUBKTNV-6" value="loaded all quiz records" style="rhombus;whiteSpace=wrap;html=1;shadow=0;fontFamily=Helvetica;fontSize=12;align=center;strokeWidth=1;spacing=6;spacingTop=-4;" parent="WIyWlLk6GJQsqaUBKTNV-1" vertex="1">
          <mxGeometry x="150" y="230" width="120" height="80" as="geometry" />
        </mxCell>
        <mxCell id="WIyWlLk6GJQsqaUBKTNV-8" value="No" style="rounded=0;html=1;jettySize=auto;orthogonalLoop=1;fontSize=11;endArrow=block;endFill=0;endSize=8;strokeWidth=1;shadow=0;labelBackgroundColor=none;edgeStyle=orthogonalEdgeStyle;" parent="WIyWlLk6GJQsqaUBKTNV-1" source="WIyWlLk6GJQsqaUBKTNV-10" target="WIyWlLk6GJQsqaUBKTNV-11" edge="1">
          <mxGeometry x="-0.0811" y="21" relative="1" as="geometry">
            <mxPoint as="offset" />
          </mxGeometry>
        </mxCell>
        <mxCell id="WIyWlLk6GJQsqaUBKTNV-9" value="Yes" style="edgeStyle=orthogonalEdgeStyle;rounded=0;html=1;jettySize=auto;orthogonalLoop=1;fontSize=11;endArrow=block;endFill=0;endSize=8;strokeWidth=1;shadow=0;labelBackgroundColor=none;entryX=0.5;entryY=1;entryDx=0;entryDy=0;" parent="WIyWlLk6GJQsqaUBKTNV-1" source="WIyWlLk6GJQsqaUBKTNV-10" target="FqrDWBqePk5-earfhPfw-26" edge="1">
          <mxGeometry x="0.0769" y="20" relative="1" as="geometry">
            <mxPoint as="offset" />
            <mxPoint x="350" y="740" as="targetPoint" />
          </mxGeometry>
        </mxCell>
        <mxCell id="WIyWlLk6GJQsqaUBKTNV-10" value="Found &lt;br&gt;enough questions &lt;br&gt;for the quiz?" style="rhombus;whiteSpace=wrap;html=1;shadow=0;fontFamily=Helvetica;fontSize=12;align=center;strokeWidth=1;spacing=6;spacingTop=-4;" parent="WIyWlLk6GJQsqaUBKTNV-1" vertex="1">
          <mxGeometry x="135" y="641" width="150" height="95" as="geometry" />
        </mxCell>
        <mxCell id="WIyWlLk6GJQsqaUBKTNV-11" value="offset2 += &lt;b&gt;n&lt;/b&gt;" style="rounded=1;whiteSpace=wrap;html=1;fontSize=12;glass=0;strokeWidth=1;shadow=0;" parent="WIyWlLk6GJQsqaUBKTNV-1" vertex="1">
          <mxGeometry x="150" y="810" width="120" height="40" as="geometry" />
        </mxCell>
        <mxCell id="WIyWlLk6GJQsqaUBKTNV-12" value="Load &lt;b&gt;n&lt;/b&gt; questions&lt;br&gt;at selected grade&lt;br&gt;since current offset2&lt;br&gt;init offset2 = 0" style="rounded=1;whiteSpace=wrap;html=1;fontSize=12;glass=0;strokeWidth=1;shadow=0;" parent="WIyWlLk6GJQsqaUBKTNV-1" vertex="1">
          <mxGeometry x="140" y="350" width="140" height="70" as="geometry" />
        </mxCell>
        <mxCell id="FqrDWBqePk5-earfhPfw-0" value="offset1 += &lt;b&gt;n&lt;/b&gt;" style="rounded=1;whiteSpace=wrap;html=1;fontSize=12;glass=0;strokeWidth=1;shadow=0;" vertex="1" parent="WIyWlLk6GJQsqaUBKTNV-1">
          <mxGeometry x="300" y="180" width="80" height="40" as="geometry" />
        </mxCell>
        <mxCell id="FqrDWBqePk5-earfhPfw-2" value="" style="edgeStyle=orthogonalEdgeStyle;rounded=0;html=1;jettySize=auto;orthogonalLoop=1;fontSize=11;endArrow=block;endFill=0;endSize=8;strokeWidth=1;shadow=0;labelBackgroundColor=none;exitX=0.5;exitY=0;exitDx=0;exitDy=0;" edge="1" parent="WIyWlLk6GJQsqaUBKTNV-1" source="FqrDWBqePk5-earfhPfw-0" target="WIyWlLk6GJQsqaUBKTNV-3">
          <mxGeometry x="0.546" y="25" relative="1" as="geometry">
            <mxPoint as="offset" />
            <mxPoint x="269.95000000000005" y="280.03999999999996" as="sourcePoint" />
            <mxPoint x="355" y="240" as="targetPoint" />
            <Array as="points">
              <mxPoint x="340" y="145" />
            </Array>
          </mxGeometry>
        </mxCell>
        <mxCell id="FqrDWBqePk5-earfhPfw-4" value="" style="edgeStyle=orthogonalEdgeStyle;rounded=0;html=1;jettySize=auto;orthogonalLoop=1;fontSize=11;endArrow=block;endFill=0;endSize=8;strokeWidth=1;shadow=0;labelBackgroundColor=none;exitX=0.5;exitY=1;exitDx=0;exitDy=0;entryX=0.5;entryY=0;entryDx=0;entryDy=0;" edge="1" parent="WIyWlLk6GJQsqaUBKTNV-1" source="WIyWlLk6GJQsqaUBKTNV-12" target="FqrDWBqePk5-earfhPfw-6">
          <mxGeometry x="0.546" y="25" relative="1" as="geometry">
            <mxPoint as="offset" />
            <mxPoint x="340" y="485" as="sourcePoint" />
            <mxPoint x="285" y="440" as="targetPoint" />
            <Array as="points" />
          </mxGeometry>
        </mxCell>
        <mxCell id="FqrDWBqePk5-earfhPfw-5" value="" style="edgeStyle=orthogonalEdgeStyle;rounded=0;html=1;jettySize=auto;orthogonalLoop=1;fontSize=11;endArrow=block;endFill=0;endSize=8;strokeWidth=1;shadow=0;labelBackgroundColor=none;exitX=0;exitY=0.5;exitDx=0;exitDy=0;entryX=0;entryY=0.5;entryDx=0;entryDy=0;" edge="1" parent="WIyWlLk6GJQsqaUBKTNV-1" source="WIyWlLk6GJQsqaUBKTNV-11" target="WIyWlLk6GJQsqaUBKTNV-12">
          <mxGeometry x="0.546" y="25" relative="1" as="geometry">
            <mxPoint as="offset" />
            <mxPoint x="220" y="430" as="sourcePoint" />
            <mxPoint x="220" y="480" as="targetPoint" />
            <Array as="points">
              <mxPoint x="90" y="830" />
              <mxPoint x="90" y="385" />
            </Array>
          </mxGeometry>
        </mxCell>
        <mxCell id="FqrDWBqePk5-earfhPfw-6" value="Loaded&amp;nbsp;&amp;nbsp;&lt;br&gt;all questions?" style="rhombus;whiteSpace=wrap;html=1;shadow=0;fontFamily=Helvetica;fontSize=12;align=center;strokeWidth=1;spacing=6;spacingTop=-4;" vertex="1" parent="WIyWlLk6GJQsqaUBKTNV-1">
          <mxGeometry x="135" y="480" width="150" height="90" as="geometry" />
        </mxCell>
        <mxCell id="FqrDWBqePk5-earfhPfw-7" value="No" style="edgeStyle=orthogonalEdgeStyle;rounded=0;html=1;jettySize=auto;orthogonalLoop=1;fontSize=11;endArrow=block;endFill=0;endSize=8;strokeWidth=1;shadow=0;labelBackgroundColor=none;exitX=0.5;exitY=1;exitDx=0;exitDy=0;entryX=0.5;entryY=0;entryDx=0;entryDy=0;" edge="1" parent="WIyWlLk6GJQsqaUBKTNV-1" source="FqrDWBqePk5-earfhPfw-6" target="WIyWlLk6GJQsqaUBKTNV-10">
          <mxGeometry x="0.0769" y="20" relative="1" as="geometry">
            <mxPoint as="offset" />
            <mxPoint x="284.9684210526316" y="737.48" as="sourcePoint" />
            <mxPoint x="360" y="750" as="targetPoint" />
          </mxGeometry>
        </mxCell>
        <mxCell id="FqrDWBqePk5-earfhPfw-8" value="Yes" style="edgeStyle=orthogonalEdgeStyle;rounded=0;html=1;jettySize=auto;orthogonalLoop=1;fontSize=11;endArrow=block;endFill=0;endSize=8;strokeWidth=1;shadow=0;labelBackgroundColor=none;exitX=1;exitY=0.5;exitDx=0;exitDy=0;entryX=0;entryY=0.5;entryDx=0;entryDy=0;" edge="1" parent="WIyWlLk6GJQsqaUBKTNV-1" source="FqrDWBqePk5-earfhPfw-6" target="FqrDWBqePk5-earfhPfw-12">
          <mxGeometry x="0.0769" y="20" relative="1" as="geometry">
            <mxPoint as="offset" />
            <mxPoint x="220" y="580" as="sourcePoint" />
            <mxPoint x="380" y="525" as="targetPoint" />
          </mxGeometry>
        </mxCell>
        <mxCell id="FqrDWBqePk5-earfhPfw-10" value="Start Quiz" style="rounded=1;whiteSpace=wrap;html=1;fontSize=12;glass=0;strokeWidth=1;shadow=0;" vertex="1" parent="WIyWlLk6GJQsqaUBKTNV-1">
          <mxGeometry x="550" y="668.5" width="120" height="40" as="geometry" />
        </mxCell>
        <mxCell id="FqrDWBqePk5-earfhPfw-12" value="Found &lt;br&gt;any questions &lt;br&gt;for the quiz?" style="rhombus;whiteSpace=wrap;html=1;shadow=0;fontFamily=Helvetica;fontSize=12;align=center;strokeWidth=1;spacing=6;spacingTop=-4;" vertex="1" parent="WIyWlLk6GJQsqaUBKTNV-1">
          <mxGeometry x="339" y="477.5" width="130" height="95" as="geometry" />
        </mxCell>
        <mxCell id="FqrDWBqePk5-earfhPfw-16" value="" style="ellipse;fillColor=#000000;strokeColor=none;" vertex="1" parent="WIyWlLk6GJQsqaUBKTNV-1">
          <mxGeometry x="195" y="30" width="30" height="30" as="geometry" />
        </mxCell>
        <mxCell id="FqrDWBqePk5-earfhPfw-17" value="" style="rounded=0;html=1;jettySize=auto;orthogonalLoop=1;fontSize=11;endArrow=block;endFill=0;endSize=8;strokeWidth=1;shadow=0;labelBackgroundColor=none;edgeStyle=orthogonalEdgeStyle;exitX=0.5;exitY=1;exitDx=0;exitDy=0;" edge="1" parent="WIyWlLk6GJQsqaUBKTNV-1" source="FqrDWBqePk5-earfhPfw-16">
          <mxGeometry relative="1" as="geometry">
            <mxPoint x="220" y="190" as="sourcePoint" />
            <mxPoint x="210" y="110" as="targetPoint" />
          </mxGeometry>
        </mxCell>
        <mxCell id="FqrDWBqePk5-earfhPfw-18" value="" style="group" vertex="1" connectable="0" parent="WIyWlLk6GJQsqaUBKTNV-1">
          <mxGeometry x="290" y="20" width="40.5" height="32" as="geometry" />
        </mxCell>
        <mxCell id="FqrDWBqePk5-earfhPfw-14" value="" style="endArrow=none;html=1;entryX=0;entryY=0;entryDx=0;entryDy=0;" edge="1" parent="FqrDWBqePk5-earfhPfw-18">
          <mxGeometry width="50" height="50" relative="1" as="geometry">
            <mxPoint y="42" as="sourcePoint" />
            <mxPoint y="2" as="targetPoint" />
            <Array as="points">
              <mxPoint y="32" />
            </Array>
          </mxGeometry>
        </mxCell>
        <mxCell id="FqrDWBqePk5-earfhPfw-15" value="" style="shape=tape;whiteSpace=wrap;html=1;strokeWidth=2;size=0.19" vertex="1" parent="FqrDWBqePk5-earfhPfw-18">
          <mxGeometry x="0.5" width="40" height="25" as="geometry" />
        </mxCell>
        <mxCell id="FqrDWBqePk5-earfhPfw-19" value="" style="ellipse;html=1;shape=endState;fillColor=#000000;strokeColor=#000000;" vertex="1" parent="WIyWlLk6GJQsqaUBKTNV-1">
          <mxGeometry x="710" y="310" width="30" height="30" as="geometry" />
        </mxCell>
        <mxCell id="FqrDWBqePk5-earfhPfw-20" value="" style="edgeStyle=orthogonalEdgeStyle;rounded=0;html=1;jettySize=auto;orthogonalLoop=1;fontSize=11;endArrow=block;endFill=0;endSize=8;strokeWidth=1;shadow=0;labelBackgroundColor=none;exitX=1;exitY=0.5;exitDx=0;exitDy=0;entryX=0.5;entryY=1;entryDx=0;entryDy=0;" edge="1" parent="WIyWlLk6GJQsqaUBKTNV-1" source="FqrDWBqePk5-earfhPfw-10" target="FqrDWBqePk5-earfhPfw-19">
          <mxGeometry x="0.546" y="25" relative="1" as="geometry">
            <mxPoint as="offset" />
            <mxPoint x="159" y="840" as="sourcePoint" />
            <mxPoint x="150" y="395" as="targetPoint" />
            <Array as="points">
              <mxPoint x="725" y="689" />
            </Array>
          </mxGeometry>
        </mxCell>
        <mxCell id="FqrDWBqePk5-earfhPfw-21" value="Yes" style="edgeStyle=orthogonalEdgeStyle;rounded=0;html=1;jettySize=auto;orthogonalLoop=1;fontSize=11;endArrow=block;endFill=0;endSize=8;strokeWidth=1;shadow=0;labelBackgroundColor=none;exitX=1;exitY=0.5;exitDx=0;exitDy=0;entryX=0.5;entryY=0;entryDx=0;entryDy=0;" edge="1" parent="WIyWlLk6GJQsqaUBKTNV-1" source="FqrDWBqePk5-earfhPfw-12" target="FqrDWBqePk5-earfhPfw-26">
          <mxGeometry x="0.04" y="-20" relative="1" as="geometry">
            <mxPoint as="offset" />
            <mxPoint x="294" y="698.5" as="sourcePoint" />
            <mxPoint x="430" y="698.5" as="targetPoint" />
          </mxGeometry>
        </mxCell>
        <mxCell id="FqrDWBqePk5-earfhPfw-22" value="No" style="rounded=0;html=1;jettySize=auto;orthogonalLoop=1;fontSize=11;endArrow=block;endFill=0;endSize=8;strokeWidth=1;shadow=0;labelBackgroundColor=none;edgeStyle=orthogonalEdgeStyle;exitX=0.5;exitY=0;exitDx=0;exitDy=0;entryX=0;entryY=0.5;entryDx=0;entryDy=0;" edge="1" parent="WIyWlLk6GJQsqaUBKTNV-1" source="FqrDWBqePk5-earfhPfw-12" target="FqrDWBqePk5-earfhPfw-23">
          <mxGeometry x="-0.0811" y="21" relative="1" as="geometry">
            <mxPoint as="offset" />
            <mxPoint x="219" y="746" as="sourcePoint" />
            <mxPoint x="404" y="410" as="targetPoint" />
          </mxGeometry>
        </mxCell>
        <mxCell id="FqrDWBqePk5-earfhPfw-23" value="Archive all of unarchived quizzes records" style="rounded=1;whiteSpace=wrap;html=1;fontSize=12;glass=0;strokeWidth=1;shadow=0;" vertex="1" parent="WIyWlLk6GJQsqaUBKTNV-1">
          <mxGeometry x="450" y="370" width="120" height="60" as="geometry" />
        </mxCell>
        <mxCell id="FqrDWBqePk5-earfhPfw-24" value="" style="edgeStyle=orthogonalEdgeStyle;rounded=0;html=1;jettySize=auto;orthogonalLoop=1;fontSize=11;endArrow=block;endFill=0;endSize=8;strokeWidth=1;shadow=0;labelBackgroundColor=none;exitX=1;exitY=0.5;exitDx=0;exitDy=0;entryX=0.5;entryY=0;entryDx=0;entryDy=0;" edge="1" parent="WIyWlLk6GJQsqaUBKTNV-1" source="FqrDWBqePk5-earfhPfw-26" target="FqrDWBqePk5-earfhPfw-10">
          <mxGeometry x="0.546" y="25" relative="1" as="geometry">
            <mxPoint as="offset" />
            <mxPoint x="159" y="840" as="sourcePoint" />
            <mxPoint x="150" y="395" as="targetPoint" />
            <Array as="points">
              <mxPoint x="610" y="630" />
            </Array>
          </mxGeometry>
        </mxCell>
        <mxCell id="FqrDWBqePk5-earfhPfw-25" value="n = 30&lt;br&gt;m &amp;lt;= 12" style="text;html=1;strokeColor=none;fillColor=none;align=center;verticalAlign=middle;whiteSpace=wrap;rounded=0;" vertex="1" parent="WIyWlLk6GJQsqaUBKTNV-1">
          <mxGeometry x="450" y="32" width="60" height="20" as="geometry" />
        </mxCell>
        <mxCell id="FqrDWBqePk5-earfhPfw-26" value="Select &lt;b&gt;m&lt;/b&gt; questions randomly" style="rounded=1;whiteSpace=wrap;html=1;fontSize=12;glass=0;strokeWidth=1;shadow=0;" vertex="1" parent="WIyWlLk6GJQsqaUBKTNV-1">
          <mxGeometry x="440" y="610" width="120" height="40" as="geometry" />
        </mxCell>
        <mxCell id="FqrDWBqePk5-earfhPfw-27" value="" style="edgeStyle=orthogonalEdgeStyle;rounded=0;html=1;jettySize=auto;orthogonalLoop=1;fontSize=11;endArrow=block;endFill=0;endSize=8;strokeWidth=1;shadow=0;labelBackgroundColor=none;exitX=0.5;exitY=0;exitDx=0;exitDy=0;entryX=0;entryY=0.5;entryDx=0;entryDy=0;" edge="1" parent="WIyWlLk6GJQsqaUBKTNV-1" source="FqrDWBqePk5-earfhPfw-23" target="FqrDWBqePk5-earfhPfw-19">
          <mxGeometry x="0.546" y="25" relative="1" as="geometry">
            <mxPoint as="offset" />
            <mxPoint x="680" y="698.5" as="sourcePoint" />
            <mxPoint x="735" y="350" as="targetPoint" />
            <Array as="points">
              <mxPoint x="510" y="325" />
            </Array>
          </mxGeometry>
        </mxCell>
      </root>
    </mxGraphModel>
  </diagram>
</mxfile>
